<?xml version="1.0" encoding="UTF-8"?>
<svg width="319px" height="329px" viewBox="0 0 319 329" version="1.1" xmlns="http://www.w3.org/2000/svg" xmlns:xlink="http://www.w3.org/1999/xlink">
    <!-- Generator: Sketch 48.2 (47327) - http://www.bohemiancoding.com/sketch -->
    <title>Shape</title>
    <desc>Created with Sketch.</desc>
    <defs></defs>
    <g id="Page-1" stroke="none" stroke-width="1" fill="none" fill-rule="evenodd">
        <g id="home" fill="#FFFFFF" fill-rule="nonzero">
            <path d="M272.771,76.12 L272.771,0 L227.421,0 L227.421,50.203 L159.396,11.338 L0.669,113.376 L23.344,124.714 L159.395,34.013 L295.446,113.376 L318.121,102.038 L272.771,76.12 Z M46.019,136.051 L46.019,328.79 L136.72,328.79 L136.72,238.089 C136.72,225.572 146.878,215.414 159.395,215.414 C171.912,215.414 182.07,225.572 182.07,238.089 L182.07,328.79 L272.771,328.79 L272.771,136.051 L159.395,68.025 L46.019,136.051 Z M250.095,306.114 L204.745,306.114 L204.745,238.089 C204.745,213.033 184.451,192.739 159.395,192.739 C134.339,192.739 114.045,213.033 114.045,238.089 L114.045,306.114 L68.695,306.114 L68.695,148.885 L159.396,94.465 L250.097,148.885 L250.097,306.114 L250.095,306.114 Z" id="Shape"></path>
        </g>
    </g>
</svg>